<?xml version="1.0" encoding="utf-8"?>
<!-- Generator: Adobe Illustrator 19.1.0, SVG Export Plug-In . SVG Version: 6.00 Build 0)  -->
<svg version="1.1" id="Calque_1" xmlns="http://www.w3.org/2000/svg" xmlns:xlink="http://www.w3.org/1999/xlink" x="0px" y="0px"
	 viewBox="0 0 113.1 93.7" style="enable-background:new 0 0 113.1 93.7;" xml:space="preserve">
<style type="text/css">
	.st0{fill:#ED5340;}
</style>
<path class="st0" d="M95.5,3c-18.3-9.1-35,7.9-39.1,12.7C52.2,10.9,35.5-6.1,17.3,3C-3.9,13.5-1.1,28,1.1,36.5
	C3.1,44.2,15.2,56,15.2,56l35.5,35.6c0,0,0,0,0,0.1c0,0,0.1,0.1,0.1,0.1l0.7,0.7c0,0,0.2,0.1,0.5,0.2c1.4,0.9,2.9,1.1,4.4,1
	c1.4,0.1,3-0.2,4.4-1c0.3-0.1,0.5-0.2,0.5-0.2l0.7-0.7c0,0,0.1-0.1,0.1-0.1c0,0,0,0,0-0.1L97.6,56c0,0,12.1-11.8,14.1-19.5
	C113.8,28,116.6,13.5,95.5,3z"/>
</svg>
