<?xml version="1.0" encoding="utf-8"?>
<!-- Generator: Adobe Illustrator 19.1.0, SVG Export Plug-In . SVG Version: 6.00 Build 0)  -->
<svg version="1.1" id="Calque_1" xmlns="http://www.w3.org/2000/svg" xmlns:xlink="http://www.w3.org/1999/xlink" x="0px" y="0px"
	 viewBox="-445 242.1 67.7 77.9" style="enable-background:new -445 242.1 67.7 77.9;" xml:space="preserve">
<style type="text/css">
	.st0{fill:#FFFFFF;}
</style>
<path class="st0" d="M-421,290.1c-12.1,0-22.6-9.2-23.9-21.6c-1.3-13.2,8.4-25,21.5-26.4c6.4-0.6,12.7,1.3,17.7,5.3
	c5,4.1,8.1,9.8,8.7,16.2l0,0c1.3,13.2-8.3,25-21.5,26.3C-419.3,290.1-420.1,290.1-421,290.1z M-420.9,246.9c-0.7,0-1.3,0-2,0.1
	c-10.4,1.1-18.1,10.5-17.1,21c1.1,10.5,10.5,18.1,21,17.1c5.1-0.5,9.7-3,12.9-6.9c3.2-4,4.7-8.9,4.2-14l0,0c-0.5-5.1-3-9.7-6.9-12.9
	C-412.3,248.4-416.5,246.9-420.9,246.9z"/>
<rect x="-417.7" y="296.7" transform="matrix(-0.6159 -0.7879 0.7879 -0.6159 -872.7673 173.6372)" class="st0" width="47.3" height="5.7"/>
</svg>
