<?xml version="1.0" encoding="utf-8"?>
<!-- Generator: Adobe Illustrator 19.1.0, SVG Export Plug-In . SVG Version: 6.00 Build 0)  -->
<svg version="1.1" id="Calque_1" xmlns="http://www.w3.org/2000/svg" xmlns:xlink="http://www.w3.org/1999/xlink" x="0px" y="0px"
	 viewBox="0 0 460.5 105" style="enable-background:new 0 0 460.5 105;" xml:space="preserve">
<style type="text/css">
	.st0{fill:#FFFFFF;}
	.st1{fill:#1F74FC;stroke:#FFFFFF;stroke-width:5;stroke-linecap:round;stroke-linejoin:round;stroke-miterlimit:10;}
	.st2{fill:#EB3838;stroke:#FFFFFF;stroke-width:5;stroke-linecap:round;stroke-linejoin:round;stroke-miterlimit:10;}
	.st3{fill:#FDC720;stroke:#FFFFFF;stroke-width:5;stroke-linecap:round;stroke-linejoin:round;stroke-miterlimit:10;}
	.st4{fill:#37BC9B;stroke:#FFFFFF;stroke-width:5;stroke-linecap:round;stroke-linejoin:round;stroke-miterlimit:10;}
</style>
<g>
	<g>
		<path class="st0" d="M167.5,31.1h-21.1v57.8h-8.8V31.1h-21.2v-7.4h51.1V31.1z"/>
		<path class="st0" d="M225.3,88.9h-7.8c-1.6,0-2.8-0.6-3.5-1.9L197,63.7c-0.5-0.7-1.1-1.3-1.7-1.6c-0.6-0.3-1.5-0.5-2.8-0.5h-6.7
			v27.2h-8.8V23.7h18.4c4.1,0,7.7,0.4,10.7,1.3c3,0.8,5.5,2,7.4,3.6c2,1.6,3.4,3.5,4.3,5.7c0.9,2.2,1.4,4.7,1.4,7.5
			c0,2.3-0.4,4.5-1.1,6.5c-0.7,2-1.8,3.8-3.2,5.4c-1.4,1.6-3.1,3-5.1,4.1c-2,1.1-4.2,2-6.8,2.5c1.1,0.6,2.1,1.6,2.9,2.8L225.3,88.9z
			 M195.2,55.2c2.5,0,4.8-0.3,6.8-0.9c2-0.6,3.6-1.5,4.9-2.6c1.3-1.1,2.3-2.5,3-4.1c0.7-1.6,1-3.3,1-5.2c0-3.9-1.3-6.8-3.8-8.8
			c-2.5-2-6.4-3-11.5-3h-9.6v24.6H195.2z"/>
		<path class="st0" d="M293.8,56.3c0,4.9-0.8,9.4-2.3,13.4c-1.5,4.1-3.7,7.6-6.6,10.5c-2.8,2.9-6.2,5.2-10.2,6.8
			c-4,1.6-8.3,2.4-13.1,2.4c-4.8,0-9.2-0.8-13.1-2.4c-3.9-1.6-7.3-3.9-10.1-6.8c-2.8-2.9-5-6.5-6.6-10.5c-1.5-4.1-2.3-8.6-2.3-13.4
			c0-4.9,0.8-9.4,2.3-13.4c1.5-4.1,3.7-7.6,6.6-10.6c2.8-3,6.2-5.3,10.1-6.9c3.9-1.6,8.3-2.5,13.1-2.5c4.8,0,9.2,0.8,13.1,2.5
			c4,1.6,7.3,3.9,10.2,6.9c2.8,3,5,6.5,6.6,10.6C293,46.9,293.8,51.4,293.8,56.3z M284.7,56.3c0-4-0.5-7.6-1.6-10.8
			s-2.6-5.9-4.6-8.1c-2-2.2-4.4-3.9-7.3-5.1c-2.9-1.2-6-1.8-9.6-1.8c-3.5,0-6.7,0.6-9.5,1.8c-2.9,1.2-5.3,2.9-7.3,5.1
			c-2,2.2-3.6,4.9-4.7,8.1c-1.1,3.2-1.6,6.8-1.6,10.8s0.5,7.6,1.6,10.8c1.1,3.2,2.6,5.9,4.7,8.1c2,2.2,4.5,3.9,7.3,5.1
			c2.9,1.2,6,1.8,9.5,1.8c3.5,0,6.7-0.6,9.6-1.8c2.9-1.2,5.3-2.9,7.3-5.1s3.5-4.9,4.6-8.1C284.2,63.9,284.7,60.3,284.7,56.3z"/>
		<path class="st0" d="M374.2,23.7v65.2h-7.7V40.9c0-0.6,0-1.3,0.1-2c0-0.7,0.1-1.5,0.2-2.2l-22.4,40.8c-0.7,1.4-1.8,2-3.2,2h-1.3
			c-1.4,0-2.5-0.7-3.2-2l-22.8-40.9c0.2,1.6,0.3,3.1,0.3,4.5v47.9h-7.7V23.7h6.5c0.8,0,1.4,0.1,1.8,0.2c0.4,0.2,0.8,0.6,1.2,1.3
			l22.5,40.1c0.4,0.7,0.7,1.5,1.1,2.3c0.3,0.8,0.7,1.6,1,2.4c0.3-0.8,0.6-1.6,1-2.4c0.3-0.8,0.7-1.6,1.1-2.3l22.1-40.1
			c0.4-0.7,0.8-1.1,1.2-1.3c0.4-0.2,1.1-0.2,1.8-0.2H374.2z"/>
		<path class="st0" d="M411.7,23.7c4,0,7.5,0.4,10.4,1.2c2.9,0.8,5.3,1.9,7.1,3.4c1.9,1.5,3.2,3.2,4.1,5.3c0.9,2.1,1.3,4.5,1.3,7.1
			c0,1.6-0.3,3.1-0.8,4.6c-0.5,1.5-1.3,2.8-2.3,4.1c-1,1.3-2.3,2.4-3.8,3.4c-1.5,1-3.3,1.8-5.4,2.5c4.8,0.9,8.4,2.6,10.8,5.1
			c2.4,2.5,3.6,5.8,3.6,9.9c0,2.8-0.5,5.3-1.5,7.6c-1,2.3-2.5,4.2-4.5,5.9c-2,1.6-4.4,2.9-7.2,3.8c-2.9,0.9-6.1,1.3-9.7,1.3h-23
			V23.7H411.7z M399.6,30.6v22.2h11.6c2.5,0,4.6-0.3,6.5-0.8c1.8-0.5,3.4-1.3,4.5-2.3c1.2-1,2.1-2.1,2.7-3.5
			c0.6-1.4,0.9-2.9,0.9-4.5c0-3.9-1.2-6.7-3.5-8.4c-2.3-1.8-5.9-2.7-10.7-2.7H399.6z M413.7,81.8c2.5,0,4.7-0.3,6.5-0.9
			c1.8-0.6,3.3-1.4,4.5-2.4c1.2-1,2-2.3,2.6-3.7c0.5-1.4,0.8-3,0.8-4.8c0-3.4-1.2-6-3.6-8s-6-2.9-10.8-2.9h-14.1v22.7H413.7z"/>
		<path class="st0" d="M458.5,88.9h-8.8V23.7h8.8V88.9z"/>
	</g>
</g>
<rect x="2.7" y="23.4" class="st1" width="98.4" height="20.8"/>
<rect x="61.5" y="4.5" class="st2" width="20.8" height="98.4"/>
<rect x="2.7" y="63.4" class="st3" width="98.4" height="20.8"/>
<rect x="21.5" y="4.5" class="st4" width="20.8" height="98.4"/>
<rect x="2.7" y="23.4" class="st1" width="57.8" height="20.8"/>
</svg>
