<?xml version="1.0" encoding="utf-8"?>
<!-- Generator: Adobe Illustrator 19.1.0, SVG Export Plug-In . SVG Version: 6.00 Build 0)  -->
<svg version="1.1" id="Calque_1" xmlns="http://www.w3.org/2000/svg" xmlns:xlink="http://www.w3.org/1999/xlink" x="0px" y="0px"
	 viewBox="-446 242.1 66 77.9" style="enable-background:new -446 242.1 66 77.9;" xml:space="preserve">
<style type="text/css">
	.st0{fill:#FFFFFF;}
</style>
<g>
	<polygon class="st0" points="-380,267.1 -380,262.1 -392.4,262.1 -393.2,267.1 	"/>
	<polygon class="st0" points="-430.3,267.1 -429.5,262.1 -446,262.1 -446,267.1 	"/>
	<polygon class="st0" points="-398.6,262.1 -423.3,262.1 -424.1,267.1 -399.4,267.1 	"/>
	<polygon class="st0" points="-428.2,298.1 -403.5,298.1 -402.7,292.1 -427.4,292.1 	"/>
	<polygon class="st0" points="-446,292.1 -446,298.1 -434.4,298.1 -433.6,292.1 	"/>
	<polygon class="st0" points="-396.5,292.1 -397.3,298.1 -380,298.1 -380,292.1 	"/>
	<polygon class="st0" points="-420.7,242.1 -426.9,242.1 -429.5,262.1 -423.3,262.1 	"/>
	<polygon class="st0" points="-434.4,298.1 -437.3,320.1 -431.2,320.1 -428.2,298.1 	"/>
	<polygon class="st0" points="-430.3,267.1 -433.6,292.1 -427.4,292.1 -424.1,267.1 	"/>
	<polygon class="st0" points="-424.1,267.1 -423.3,262.1 -429.5,262.1 -430.3,267.1 	"/>
	<polygon class="st0" points="-427.4,292.1 -433.6,292.1 -434.4,298.1 -428.2,298.1 	"/>
	<polygon class="st0" points="-406.4,320.1 -400.2,320.1 -397.3,298.1 -403.5,298.1 	"/>
	<polygon class="st0" points="-392.4,262.1 -389.8,242.1 -395.9,242.1 -398.6,262.1 	"/>
	<polygon class="st0" points="-399.4,267.1 -402.7,292.1 -396.5,292.1 -393.2,267.1 	"/>
	<polygon class="st0" points="-399.4,267.1 -393.2,267.1 -392.4,262.1 -398.6,262.1 	"/>
	<polygon class="st0" points="-402.7,292.1 -403.5,298.1 -397.3,298.1 -396.5,292.1 	"/>
</g>
</svg>
