<?xml version="1.0" encoding="utf-8"?>
<!-- Generator: Adobe Illustrator 19.1.0, SVG Export Plug-In . SVG Version: 6.00 Build 0)  -->
<svg version="1.1" id="Calque_1" xmlns="http://www.w3.org/2000/svg" xmlns:xlink="http://www.w3.org/1999/xlink" x="0px" y="0px"
	 viewBox="-446 242.1 67 77.9" style="enable-background:new -446 242.1 67 77.9;" xml:space="preserve">
<style type="text/css">
	.st0{fill:#FFFFFF;}
</style>
<path class="st0" d="M-424.7,290.2c-6.9,0-12.5-7.1-12.5-15.8c0-8.7,5.6-15.8,12.5-15.8c6.9,0,12.5,7.1,12.5,15.8
	C-412.3,283.1-417.9,290.2-424.7,290.2z M-424.7,263.5c-4.1,0-7.5,5-7.5,10.9s3.4,10.9,7.5,10.9c4.1,0,7.5-5,7.5-10.9
	S-420.7,263.5-424.7,263.5z"/>
<rect x="-402" y="251.1" class="st0" width="4" height="23"/>
<rect x="-411" y="260.1" class="st0" width="21" height="5"/>
<path class="st0" d="M-401,283.4c-2.4,0-4.8-0.4-7.1-1.3l1.7-4.6c3.9,1.4,8.2,1.3,12-0.5c3.8-1.7,6.7-4.9,8.1-8.8
	c1.4-3.9,1.3-8.2-0.5-12c-1.7-3.8-4.9-6.7-8.8-8.1c-3.9-1.4-8.2-1.3-12,0.5c-3.8,1.7-6.7,4.9-8.1,8.8l-4.6-1.7
	c4-10.7,15.8-16.1,26.5-12.2c10.6,3.9,16.1,15.8,12.2,26.4C-384.7,278.3-392.6,283.4-401,283.4z"/>
<g>
	<path class="st0" d="M-432,296.4c2.4-2.3,5.2-3.1,7.4-3c6,0.2,14.5,9.7,14.8,26.7h5c-0.4-19-10.3-31.5-19.6-31.8
		c-3.7-0.1-7.6,1.7-11.1,4.9c-6.3,5.8-10.1,14.9-10.2,26.9h5C-440.6,309.1-437.4,301.4-432,296.4z"/>
</g>
</svg>
