<?xml version="1.0" encoding="utf-8"?>
<!-- Generator: Adobe Illustrator 19.1.0, SVG Export Plug-In . SVG Version: 6.00 Build 0)  -->
<svg version="1.1" id="Calque_1" xmlns="http://www.w3.org/2000/svg" xmlns:xlink="http://www.w3.org/1999/xlink" x="0px" y="0px"
	 viewBox="-440 242.1 77.3 77.9" style="enable-background:new -440 242.1 77.3 77.9;" xml:space="preserve">
<style type="text/css">
	.st0{fill:#FFFFFF;}
</style>
<path class="st0" d="M-394.6,320c-0.8,0-1.6-0.4-2.1-1.1l-2.9-4.4l-4.6-0.1l-2.6,4.1c-0.7,1-2,1.4-3.1,0.9l-13.8-6.2
	c-1.1-0.5-1.6-1.6-1.4-2.7l1-4.7l-3.1-3.1l-4.5,0.9c-1.2,0.2-2.3-0.4-2.8-1.5l-5.3-13.4c-0.4-1.1,0-2.4,1-3l4.3-2.7l0.1-4.5
	l-4.2-2.7c-1-0.6-1.4-1.9-0.9-3l5.9-13.7c0.3-0.6,0.8-1.1,1.4-1.3c0.6-0.2,1.3-0.2,1.9,0.1l4,2l3.8-3.7l-1.7-4.8
	c-0.4-1.2,0.2-2.5,1.3-3.1l13.1-5.8c1-0.4,2.2-0.2,2.9,0.7l3.5,3.9h5.2l3.4-3.9c0.7-0.7,1.8-1,2.8-0.6l11.8,5.2
	c1,0.5,1.6,1.6,1.4,2.7l-1.2,6.3l2.9,2.9l5.9-1.3c1.1-0.3,2.3,0.3,2.8,1.4l5.4,12.3c0.5,1,0.1,2.3-0.8,2.9l-5.2,4l0.1,4.5l5,3.2
	c1,0.6,1.4,1.9,0.9,3l-5.5,13.2c-0.5,1.1-1.6,1.7-2.8,1.5l-5.4-1.2l-3.1,3.1l1.2,5.2c0.3,1.2-0.4,2.4-1.5,2.8l-13.6,5.4
	C-394,320-394.3,320-394.6,320z M-405.5,310C-405.4,310-405.4,310-405.5,310l7.3-0.1c0.8,0,1.6,0.3,2,1l2.5,3.8l9.8-3.9l-1-4.5
	c-0.2-0.8,0.1-1.7,0.7-2.3l5-5c0.6-0.6,1.4-0.8,2.3-0.7l4.8,1l4-9.5l-4.4-2.8c-0.7-0.4-1.1-1.2-1.1-2l-0.1-7.1c0-0.8,0.3-1.5,1-2
	l4.8-3.6l-3.8-8.7l-5.2,1.2c-0.8,0.2-1.7-0.1-2.3-0.6l-4.8-4.7c-0.6-0.6-0.9-1.4-0.7-2.2l0.7-5.7l-8.3-3.7l-2.9,3.3
	c-0.5,0.5-1.2,0.8-1.9,0.8l-7.5-0.1c-0.7,0-1.4-0.3-1.8-0.9l-3-3.5l-9.4,4.2l1.4,4.1c0.3,0.9,0.1,1.9-0.6,2.6l-6.1,6.1
	c-0.7,0.7-1.9,0.9-2.8,0.5l-3.3-1.6l-4,9.4l3.6,2.3c0.7,0.5,1.1,1.3,1.1,2.1l-0.1,7.2c0,0.8-0.4,1.6-1.2,2.1l-3.7,2.3l3.9,9.6
	l3.7-0.8c0.8-0.2,1.6,0.1,2.2,0.7l5,5c0.6,0.6,0.8,1.4,0.7,2.3l-0.8,4l10,4.5l2.2-3.2C-407.1,310.2-406.3,310-405.5,310z"/>
<path class="st0" d="M-401.4,296.6c-8.5,0-15.5-7-15.5-15.5s7-15.5,15.5-15.5s15.5,7,15.5,15.5S-392.8,296.6-401.4,296.6z
	 M-401.4,270.5c-5.8,0-10.6,4.7-10.6,10.6s4.7,10.6,10.6,10.6c5.8,0,10.6-4.7,10.6-10.6S-395.5,270.5-401.4,270.5z"/>
</svg>
