<?xml version="1.0" encoding="utf-8"?>
<!-- Generator: Adobe Illustrator 19.1.0, SVG Export Plug-In . SVG Version: 6.00 Build 0)  -->
<svg version="1.1" id="Calque_1" xmlns="http://www.w3.org/2000/svg" xmlns:xlink="http://www.w3.org/1999/xlink" x="0px" y="0px"
	 viewBox="-446 242.1 66 77.9" style="enable-background:new -446 242.1 66 77.9;" xml:space="preserve">
<style type="text/css">
	.st0{fill:#FFFDFD;}
</style>
<path class="st0" d="M-394.3,320h-37.6c-7.9,0-14.3-6.4-14.3-14.3v-49.3c0-7.9,6.4-14.3,14.3-14.3h37.6c7.9,0,14.3,6.4,14.3,14.3
	v49.3C-380,313.6-386.4,320-394.3,320z M-431.9,247c-5.2,0-9.4,4.2-9.4,9.4v49.3c0,5.2,4.2,9.4,9.4,9.4h37.6c5.2,0,9.4-4.2,9.4-9.4
	v-49.3c0-5.2-4.2-9.4-9.4-9.4H-431.9z"/>
<path class="st0" d="M-413.1,266.2L-413.1,266.2c-2.1,0-3.8-1.7-3.8-3.8v-0.5c0-2.1,1.7-3.8,3.8-3.8h0c2.1,0,3.8,1.7,3.8,3.8v0.5
	C-409.3,264.5-411,266.2-413.1,266.2z"/>
<path class="st0" d="M-413.1,306.2L-413.1,306.2c-2.1,0-3.8-1.7-3.8-3.8V273c0-2.1,1.7-3.8,3.8-3.8h0c2.1,0,3.8,1.7,3.8,3.8v29.3
	C-409.3,304.5-411,306.2-413.1,306.2z"/>
</svg>
